<svg width="1280" height="720" viewBox="0 0 1280 720" fill="none" xmlns="http://www.w3.org/2000/svg">
  <defs>
    <linearGradient id="bg" x1="80" y1="60" x2="1200" y2="660" gradientUnits="userSpaceOnUse">
      <stop stop-color="#F4F1EA"/>
      <stop offset="1" stop-color="#E7EEF8"/>
    </linearGradient>
    <linearGradient id="panelA" x1="0" y1="0" x2="1" y2="1">
      <stop stop-color="#18212B"/>
      <stop offset="1" stop-color="#243748"/>
    </linearGradient>
    <linearGradient id="panelB" x1="0" y1="0" x2="1" y2="1">
      <stop stop-color="#FFF7E8"/>
      <stop offset="1" stop-color="#FFE7BE"/>
    </linearGradient>
    <filter id="shadow" x="-20%" y="-20%" width="140%" height="140%">
      <feDropShadow dx="0" dy="18" stdDeviation="18" flood-color="#1B2430" flood-opacity="0.12"/>
    </filter>
  </defs>
  <rect width="1280" height="720" rx="40" fill="url(#bg)"/>
  <rect x="64" y="56" width="1152" height="608" rx="32" fill="#FBFAF7" filter="url(#shadow)"/>
  <rect x="112" y="112" width="344" height="496" rx="28" fill="url(#panelA)"/>
  <rect x="496" y="112" width="312" height="230" rx="26" fill="#FFFFFF" stroke="#D9E1EA"/>
  <rect x="496" y="378" width="312" height="230" rx="26" fill="#FFFFFF" stroke="#D9E1EA"/>
  <rect x="848" y="112" width="320" height="496" rx="28" fill="url(#panelB)"/>
  <text x="148" y="180" fill="#FFFFFF" font-family="Segoe UI, Arial, sans-serif" font-size="42" font-weight="700">FinSight</text>
  <text x="148" y="224" fill="#B9C8D8" font-family="Segoe UI, Arial, sans-serif" font-size="24">Evidence-first company research</text>
  <rect x="148" y="274" width="272" height="74" rx="22" fill="#2E4357"/>
  <text x="174" y="320" fill="#F8FAFC" font-family="Consolas, monospace" font-size="24">生成 META 最新财报</text>
  <rect x="148" y="376" width="272" height="118" rx="22" fill="#213140"/>
  <circle cx="181" cy="416" r="8" fill="#6BE7A6"/>
  <circle cx="181" cy="452" r="8" fill="#6BE7A6"/>
  <circle cx="181" cy="488" r="8" fill="#6BE7A6"/>
  <text x="203" y="424" fill="#D8E5F1" font-family="Segoe UI, Arial, sans-serif" font-size="22">理解任务与公司身份</text>
  <text x="203" y="460" fill="#D8E5F1" font-family="Segoe UI, Arial, sans-serif" font-size="22">抓取 SEC / 行情 / 披露</text>
  <text x="203" y="496" fill="#D8E5F1" font-family="Segoe UI, Arial, sans-serif" font-size="22">生成 HTML / Markdown / JSON</text>
  <text x="532" y="166" fill="#202B36" font-family="Segoe UI, Arial, sans-serif" font-size="28" font-weight="700">Planning</text>
  <text x="532" y="206" fill="#5C6B79" font-family="Segoe UI, Arial, sans-serif" font-size="20">LLM-first target resolution</text>
  <rect x="532" y="234" width="240" height="72" rx="18" fill="#F5F7FA"/>
  <text x="554" y="276" fill="#1F2933" font-family="Consolas, monospace" font-size="20">META | US | 2026Q1</text>
  <text x="532" y="432" fill="#202B36" font-family="Segoe UI, Arial, sans-serif" font-size="28" font-weight="700">Evidence</text>
  <text x="532" y="472" fill="#5C6B79" font-family="Segoe UI, Arial, sans-serif" font-size="20">10-K / companyfacts / market snapshots</text>
  <rect x="532" y="500" width="240" height="72" rx="18" fill="#F5F7FA"/>
  <text x="554" y="544" fill="#1F2933" font-family="Consolas, monospace" font-size="20">claims.json + citations.json</text>
  <text x="884" y="168" fill="#6C4B00" font-family="Segoe UI, Arial, sans-serif" font-size="28" font-weight="700">Deliverables</text>
  <rect x="884" y="212" width="248" height="92" rx="22" fill="#FFFDF8" stroke="#EDC982"/>
  <text x="910" y="248" fill="#6C4B00" font-family="Segoe UI, Arial, sans-serif" font-size="22" font-weight="700">HTML report</text>
  <text x="910" y="282" fill="#8A6A21" font-family="Segoe UI, Arial, sans-serif" font-size="18">browser-ready, citation-aware</text>
  <rect x="884" y="330" width="248" height="92" rx="22" fill="#FFFDF8" stroke="#EDC982"/>
  <text x="910" y="366" fill="#6C4B00" font-family="Segoe UI, Arial, sans-serif" font-size="22" font-weight="700">Markdown report</text>
  <text x="910" y="400" fill="#8A6A21" font-family="Segoe UI, Arial, sans-serif" font-size="18">clean diffable artifact</text>
  <rect x="884" y="448" width="248" height="92" rx="22" fill="#FFFDF8" stroke="#EDC982"/>
  <text x="910" y="484" fill="#6C4B00" font-family="Segoe UI, Arial, sans-serif" font-size="22" font-weight="700">Verification gate</text>
  <text x="910" y="518" fill="#8A6A21" font-family="Segoe UI, Arial, sans-serif" font-size="18">degrade instead of hallucinate</text>
  <path d="M456 218H482" stroke="#7E8B99" stroke-width="6" stroke-linecap="round"/>
  <path d="M808 230H834" stroke="#7E8B99" stroke-width="6" stroke-linecap="round"/>
  <path d="M652 342V362" stroke="#7E8B99" stroke-width="6" stroke-linecap="round"/>
  <path d="M808 494H834" stroke="#7E8B99" stroke-width="6" stroke-linecap="round"/>
</svg>
